# xmcd CD database file
#
# Track frame offsets:
#	150
#	15605
#	31303
#	43090
#	57393
#	72833
#	87575
#	102880
#	116463
#	129910
#	142980
#	157620
#	171285
#	184708
#	198883
#	214008
#	229605
#	244000
#	259653
#	274053
#	288375
#	302868
#
# Disc length: 4248 seconds
#
# Revision: 4
# Processed by: cddbd v1.5.2PL0 Copyright (c) Steve Scherf et al.
# Submitted via: CDex 1.51
#
DISCID=2d109616
DTITLE=Bessie Smith - Vol. 090-  Empress of the Blues 1923-1933
DYEAR=1954
DGENRE=Jazz
TTITLE0=Do your duty
TTITLE1=Gimme a pigfoot
TTITLE2=Take me for a buggy ride
TTITLE3=I'm down in the dumps
TTITLE4=Safety Mama
TTITLE5=He's got me goin'
TTITLE6=Take it right back
TTITLE7=Nobody knows you when you're down and out
TTITLE8=Kitchen man
TTITLE9=Me and my gin
TTITLE10=Trombone cholly
TTITLE11=Alexander ragtime band
TTITLE12=After you've gone
TTITLE13=Young woman's blues
TTITLE14=I ain't gonna play no second fiddle
TTITLE15=Careless love
TTITLE16=Cake walkin' babies from home
TTITLE17=You've been a good ole wagon
TTITLE18=The St. Louis blues
TTITLE19=Weepin' willow blues
TTITLE20=My sweetie went away (she didn't say where, when or why)
TTITLE21='taint nobody's bizness if I do
EXTD=YEAR: 1954
EXTT0=
EXTT1=
EXTT2=
EXTT3=
EXTT4=
EXTT5=
EXTT6=
EXTT7=
EXTT8=
EXTT9=
EXTT10=
EXTT11=
EXTT12=
EXTT13=
EXTT14=
EXTT15=
EXTT16=
EXTT17=
EXTT18=
EXTT19=
EXTT20=
EXTT21=
PLAYORDER=
